<?xml version="1.0" standalone="no"?>
<!DOCTYPE svg PUBLIC "-//W3C//DTD SVG 20010904//EN"
 "http://www.w3.org/TR/2001/REC-SVG-20010904/DTD/svg10.dtd">
<svg version="1.0" xmlns="http://www.w3.org/2000/svg"
 width="1024.000000pt" height="1024.000000pt" viewBox="0 0 1024.000000 1024.000000"
 preserveAspectRatio="xMidYMid meet">

<g transform="translate(0.000000,1024.000000) scale(0.100000,-0.100000)"
fill="#000000" stroke="none">
<path d="M4780 10217 c-119 -49 -205 -130 -264 -248 -46 -91 -58 -156 -54
-288 3 -110 3 -110 -20 -104 -29 7 -67 -18 -88 -59 -13 -25 -15 -51 -11 -122
8 -147 63 -259 153 -312 38 -22 44 -31 44 -58 0 -55 30 -124 77 -176 l46 -51
-5 -73 c-6 -91 -41 -160 -104 -206 -24 -17 -101 -58 -172 -90 -70 -32 -190
-88 -267 -124 -120 -56 -148 -66 -195 -66 -190 0 -416 -149 -503 -330 -83
-174 -116 -358 -98 -553 l11 -125 -35 -76 c-59 -130 -94 -299 -115 -562 l-10
-131 -44 -68 c-25 -37 -60 -99 -79 -138 -56 -115 -107 -358 -122 -582 -7 -106
-49 -373 -85 -540 -22 -100 -22 -100 -73 -140 -97 -77 -159 -139 -199 -199
-23 -34 -82 -117 -133 -186 -51 -69 -96 -135 -99 -147 -9 -29 17 -88 44 -103
24 -13 89 -1 142 26 15 8 28 13 28 12 0 -2 -7 -25 -15 -52 -8 -27 -22 -90 -31
-140 -8 -50 -24 -125 -34 -167 -33 -128 0 -186 99 -177 l49 5 6 -37 c11 -73
82 -106 150 -71 36 19 41 19 68 5 16 -8 48 -16 71 -16 35 0 46 5 79 40 21 23
38 51 38 63 0 16 4 19 18 13 9 -4 36 -9 59 -12 34 -3 46 0 66 20 28 28 47 102
47 181 0 71 25 278 50 411 24 130 25 200 6 329 -13 86 -13 103 1 149 26 89 88
228 216 481 174 343 216 484 217 726 0 122 0 125 41 220 53 124 105 273 134
386 13 50 26 83 28 75 3 -8 22 -71 42 -140 20 -69 64 -195 98 -280 62 -154 62
-156 62 -255 0 -93 -13 -282 -34 -500 -6 -56 -24 -137 -49 -215 -46 -146 -97
-398 -111 -555 -69 -751 -48 -1241 80 -1815 16 -74 32 -159 35 -190 9 -80 -12
-231 -46 -344 -17 -55 -42 -161 -57 -235 -24 -118 -28 -160 -28 -316 0 -174 1
-185 37 -330 84 -342 134 -618 150 -827 11 -156 11 -158 -13 -219 -18 -46 -47
-87 -111 -159 -95 -106 -147 -152 -222 -195 -53 -31 -82 -80 -70 -118 11 -37
56 -77 99 -88 42 -12 381 -31 575 -33 102 -1 120 2 163 23 72 35 89 69 81 156
-3 39 -12 104 -20 145 -17 92 -18 179 -2 217 8 19 12 112 13 278 1 200 6 277
23 385 11 74 23 153 25 175 3 22 23 92 45 156 53 154 66 236 65 409 0 140 -4
167 -49 388 l-17 83 47 147 c51 163 84 318 116 552 24 180 46 278 100 450 95
306 121 457 127 750 3 177 7 233 20 263 9 20 20 37 24 37 15 0 18 -38 23 -275
7 -304 31 -452 120 -733 59 -186 90 -329 116 -527 29 -221 57 -351 123 -577
29 -95 28 -96 -17 -313 -46 -220 -22 -483 63 -698 16 -39 32 -97 35 -127 4
-30 14 -89 21 -130 23 -124 37 -393 28 -519 -8 -100 -6 -122 10 -170 20 -60
19 -98 -9 -260 -8 -46 -14 -109 -14 -140 0 -49 4 -61 28 -84 15 -14 45 -34 67
-43 54 -23 195 -30 281 -14 38 7 148 14 244 14 157 1 180 3 222 23 45 21 78
62 78 97 0 35 -27 68 -85 106 -35 23 -110 90 -169 150 -83 85 -114 125 -142
182 -34 70 -35 76 -29 153 18 237 64 505 166 955 17 74 33 173 36 220 10 146
-39 460 -102 659 -33 104 -48 244 -34 329 5 34 23 122 40 193 89 388 128 838
109 1282 -12 279 -21 379 -61 644 -30 207 -42 258 -94 428 -36 115 -45 179
-67 460 -23 302 -25 291 65 512 43 106 90 241 105 302 26 105 42 139 42 88 0
-39 57 -216 122 -378 l61 -154 7 -165 c4 -91 13 -185 19 -210 39 -147 87 -263
220 -530 81 -162 162 -335 180 -385 l33 -90 -16 -97 c-20 -121 -20 -219 0
-328 27 -150 34 -202 49 -377 15 -179 26 -222 66 -244 22 -11 80 -8 112 5 13
6 17 3 17 -14 0 -13 17 -39 39 -61 35 -35 44 -39 89 -39 34 0 57 6 73 19 23
19 24 19 48 0 15 -12 40 -19 66 -19 36 0 48 5 69 31 15 17 26 43 26 59 0 29 0
29 49 23 46 -5 52 -3 80 25 36 35 40 74 16 162 -8 30 -22 96 -31 145 -8 50
-22 114 -31 143 -8 30 -13 55 -11 58 3 2 23 -5 46 -16 77 -38 140 -23 163 37
17 45 7 63 -137 249 -33 44 -74 99 -89 124 -37 60 -144 169 -205 211 l-48 33
-36 180 c-36 185 -56 331 -75 538 -14 143 -43 292 -82 413 -21 67 -48 120 -97
196 l-69 104 -6 125 c-7 142 -46 388 -75 470 -11 31 -32 80 -47 110 -28 55
-28 55 -16 155 15 131 14 191 -4 300 -39 239 -126 394 -290 510 -86 62 -154
86 -262 95 -87 7 -101 12 -285 95 -402 183 -440 206 -472 286 -45 112 -40 193
15 244 42 40 69 100 69 155 0 42 3 48 47 80 95 72 141 162 150 301 9 118 -21
181 -87 183 l-30 1 0 105 c0 124 -16 196 -66 299 -46 93 -126 174 -219 221
l-69 35 -275 2 c-268 3 -278 2 -331 -20z m523 -52 c175 -46 290 -157 333 -326
14 -52 15 -92 10 -218 l-6 -153 42 5 c24 2 53 8 65 12 31 10 39 -28 24 -117
-23 -142 -76 -218 -152 -218 -33 0 -40 -4 -45 -25 -3 -14 -4 -39 -1 -55 10
-50 -19 -122 -71 -178 l-47 -52 6 -92 c8 -113 35 -189 89 -250 44 -50 181
-125 458 -248 89 -40 161 -74 159 -76 -14 -14 -230 -47 -361 -55 -227 -15
-244 -26 -321 -219 -43 -108 -63 -192 -100 -405 -14 -84 -43 -203 -65 -270
-38 -113 -45 -127 -121 -220 -44 -55 -86 -106 -93 -113 -11 -11 -26 1 -82 69
-38 45 -81 98 -95 118 -45 62 -105 260 -129 421 -42 285 -114 506 -185 569
-47 41 -81 49 -240 54 -120 5 -190 14 -324 43 -18 4 25 28 190 105 118 55 232
107 254 116 22 9 60 30 85 47 115 78 163 174 173 351 4 69 3 70 -27 90 -16 11
-44 39 -60 63 -27 38 -31 54 -36 130 l-5 87 -37 -3 c-77 -7 -140 78 -160 216
-14 93 -8 118 25 107 12 -4 42 -10 66 -12 l44 -5 -9 103 c-12 151 -8 245 16
314 49 143 155 240 315 286 80 23 335 26 418 4z m-1249 -2051 c185 -80 196
-87 196 -109 0 -12 -12 -46 -27 -76 -32 -66 -251 -286 -381 -384 -100 -75
-420 -241 -435 -226 -5 5 -7 68 -5 153 6 161 30 265 93 393 83 171 243 283
404 284 63 1 85 -4 155 -35z m2421 -5 c96 -47 204 -153 244 -240 60 -129 83
-230 88 -397 l6 -153 -29 6 c-49 11 -249 111 -331 166 -111 74 -163 118 -291
243 -124 121 -165 173 -188 238 -13 39 -13 43 3 60 10 9 72 40 138 68 117 49
122 50 205 47 73 -3 95 -8 155 -38z m-1930 -101 c60 -27 129 -229 177 -523 20
-125 40 -215 59 -263 16 -40 29 -78 29 -85 0 -8 -27 -26 -59 -42 -53 -25 -67
-27 -128 -22 -162 12 -330 123 -489 321 -84 105 -118 171 -102 200 6 11 69 80
139 153 141 145 174 196 165 251 l-5 35 93 -6 c52 -4 106 -12 121 -19z m1338
16 c3 -4 2 -15 -4 -25 -19 -36 24 -105 144 -228 62 -64 127 -132 145 -152 l34
-37 -28 -53 c-57 -114 -215 -281 -343 -364 -142 -92 -296 -122 -393 -77 -75
35 -73 30 -38 118 21 54 41 135 61 254 34 204 57 298 98 405 57 147 81 165
222 165 53 0 99 -3 102 -6z m-1816 -673 c52 -69 168 -184 244 -241 83 -61 170
-101 266 -121 72 -15 142 -3 220 37 l48 24 25 -32 c14 -18 58 -71 98 -118 41
-47 78 -95 83 -108 5 -13 6 -252 2 -565 -7 -591 -7 -587 47 -587 61 0 60 -10
45 567 -7 287 -9 540 -5 562 8 44 8 45 95 146 33 39 71 85 85 103 l25 32 65
-33 c59 -29 72 -32 155 -31 105 2 172 22 280 86 131 78 323 286 395 427 16 33
24 41 31 30 14 -22 10 -233 -6 -390 -22 -202 -47 -323 -105 -499 -66 -203
-138 -350 -256 -521 -87 -127 -95 -143 -85 -165 6 -13 15 -24 20 -24 6 0 45
44 88 97 l78 97 7 -54 c3 -30 7 -100 8 -155 0 -55 4 -130 9 -167 4 -38 7 -68
7 -68 -1 0 -28 11 -61 25 -112 46 -286 23 -405 -53 -102 -65 -269 -285 -256
-337 4 -15 14 -25 24 -25 22 0 49 29 129 135 99 132 177 191 291 220 49 13 73
14 117 6 121 -22 156 -61 210 -231 89 -283 139 -646 151 -1095 12 -465 -29
-888 -121 -1255 -13 -52 -27 -121 -31 -154 l-7 -58 -39 93 c-86 202 -113 283
-175 534 -75 302 -103 496 -103 711 l0 142 74 11 c126 18 242 85 282 162 40
78 0 87 -70 17 -65 -67 -120 -94 -227 -116 -74 -14 -91 -14 -202 0 -226 30
-361 108 -424 245 -48 104 -60 194 -43 335 19 158 18 188 -2 202 -27 16 -37
-1 -64 -104 -18 -68 -24 -119 -24 -193 0 -136 -15 -215 -53 -278 -58 -96 -197
-169 -370 -195 -214 -33 -373 4 -477 110 -48 50 -64 56 -79 28 -22 -42 47
-124 143 -168 28 -13 85 -31 127 -40 77 -16 77 -17 83 -53 28 -169 -21 -579
-109 -916 -43 -164 -60 -212 -137 -393 l-63 -146 -6 69 c-4 39 -16 106 -27
150 -90 352 -129 755 -119 1225 13 552 53 859 147 1138 55 163 89 199 212 222
143 27 287 -53 417 -233 71 -99 105 -132 125 -124 33 13 17 62 -51 158 -84
117 -143 176 -219 216 -84 44 -160 64 -254 65 -67 0 -90 -4 -131 -25 l-50 -24
6 56 c6 62 25 335 25 365 0 18 2 18 26 -5 14 -13 51 -57 81 -96 31 -40 59 -73
62 -73 13 0 31 24 31 42 0 10 -44 85 -98 166 -133 198 -173 274 -225 428 -63
183 -84 261 -106 399 -40 240 -56 530 -31 561 10 12 20 1 56 -62 24 -42 56
-93 71 -113z m-208 59 c-5 -36 -6 -157 -3 -270 l6 -205 -47 -155 c-54 -174
-125 -371 -162 -444 -24 -48 -108 -146 -124 -146 -5 0 -9 37 -9 83 -1 66 -7
101 -34 180 -18 54 -37 102 -43 108 -9 9 -120 -8 -167 -27 -21 -8 -22 -22 10
206 39 274 72 377 150 468 28 33 68 59 178 113 77 39 166 90 196 113 30 24 56
43 56 42 1 -1 -3 -30 -7 -66z m2596 -8 c44 -30 121 -73 171 -97 138 -66 217
-159 258 -305 16 -57 50 -283 61 -404 5 -63 4 -68 -12 -61 -10 5 -43 14 -73
22 -71 19 -105 7 -119 -39 -6 -18 -19 -58 -30 -88 -15 -40 -20 -80 -21 -147 0
-51 -4 -93 -8 -93 -17 0 -91 81 -120 132 -35 62 -111 264 -174 463 l-45 140 9
145 c6 80 8 202 5 272 -3 94 -2 126 7 120 6 -4 47 -31 91 -60z m-3030 -975
c21 -45 26 -68 26 -138 2 -161 -45 -331 -189 -700 -158 -403 -206 -570 -168
-585 20 -8 46 12 46 35 0 36 94 299 184 513 99 236 155 397 176 508 13 65 13
65 67 91 l53 26 0 -76 c-1 -196 -41 -320 -216 -666 -152 -301 -224 -474 -224
-537 1 -24 7 -79 15 -123 18 -99 18 -140 0 -235 -15 -78 -60 -415 -70 -532 -5
-48 -11 -68 -20 -68 -27 0 -34 82 -21 263 6 88 5 121 -4 132 -14 17 -60 20
-60 5 0 -28 -43 -307 -60 -389 -21 -105 -33 -124 -68 -110 -22 8 -23 13 -17
62 4 28 11 68 15 87 17 65 51 328 48 362 -3 29 -7 33 -35 36 -30 3 -32 1 -38
-35 -15 -83 -43 -213 -69 -318 -16 -60 -32 -126 -37 -145 -10 -43 -34 -78 -46
-67 -19 20 6 225 61 502 13 63 13 71 -2 83 -9 6 -20 12 -24 12 -16 0 -39 -71
-60 -179 -34 -176 -57 -249 -90 -276 -32 -27 -58 -33 -58 -13 0 7 9 51 20 98
10 47 31 141 46 210 15 69 35 153 46 187 14 48 16 68 8 83 -18 33 -62 26 -115
-20 -60 -52 -104 -75 -118 -61 -7 7 8 30 45 73 30 35 88 110 128 168 87 126
112 155 210 233 41 33 79 66 84 75 12 20 72 327 92 465 8 62 19 168 24 237 11
144 50 368 80 455 48 140 168 292 245 312 61 17 62 16 90 -40z m3461 28 c41
-17 108 -78 146 -132 100 -146 150 -322 169 -598 14 -189 92 -676 117 -721 6
-12 40 -44 74 -72 89 -70 155 -143 222 -244 32 -48 84 -119 117 -157 32 -39
59 -73 59 -76 0 -10 -32 -5 -61 11 -17 8 -47 30 -67 48 -47 42 -85 52 -107 29
-20 -19 -19 -25 24 -191 18 -68 38 -158 46 -200 7 -42 20 -105 28 -139 17 -70
10 -84 -28 -59 -48 32 -59 63 -116 328 -11 54 -29 108 -39 120 -17 21 -20 21
-34 8 -15 -14 -14 -29 8 -160 14 -80 32 -178 40 -218 20 -93 21 -202 3 -202
-19 0 -37 42 -58 135 -9 44 -31 133 -48 197 -16 64 -33 139 -37 167 -4 28 -12
55 -19 61 -18 15 -65 -5 -65 -27 0 -23 57 -355 70 -408 21 -89 8 -135 -35
-119 -24 10 -60 165 -98 419 -11 79 -15 90 -34 93 -11 2 -28 -5 -37 -14 -15
-14 -16 -27 -9 -83 10 -86 10 -297 0 -308 -20 -20 -34 37 -50 209 -9 100 -28
237 -42 303 -30 146 -31 228 -5 363 l20 103 -52 127 c-28 70 -106 235 -173
367 -131 256 -184 385 -208 505 -16 78 -29 263 -18 257 3 -2 30 -14 58 -28 38
-17 53 -30 53 -45 1 -70 78 -302 182 -541 40 -92 102 -256 138 -363 56 -163
70 -195 86 -195 50 0 12 148 -133 515 -169 428 -215 583 -216 725 -1 103 9
163 34 203 21 35 25 36 95 7z m-1561 -2026 c37 -17 127 -44 199 -60 72 -17
138 -32 147 -35 14 -4 17 -38 24 -262 12 -395 11 -429 -7 -542 -10 -58 -27
-215 -38 -349 -20 -242 -30 -298 -76 -440 -13 -40 -24 -86 -24 -102 0 -40 -16
-45 -23 -6 -4 17 -17 92 -31 166 -14 74 -32 196 -41 270 -22 191 -46 308 -109
527 -86 300 -111 453 -122 737 -7 160 -7 162 12 145 11 -10 51 -31 89 -49z
m-347 -109 c-13 -285 -44 -463 -138 -789 -46 -160 -74 -306 -95 -490 -14 -119
-71 -429 -81 -440 -2 -2 -4 12 -4 32 0 20 -13 78 -29 129 -41 130 -48 172 -71
435 -19 219 -36 358 -60 482 -7 36 -7 90 0 165 5 61 12 194 15 296 5 163 7
186 23 191 9 4 73 19 142 34 136 30 200 52 257 89 21 13 40 22 43 21 3 -2 2
-72 -2 -155z m-494 -1165 c7 -121 11 -224 9 -230 -2 -5 -23 -23 -46 -40 -61
-44 -202 -163 -281 -239 -38 -36 -70 -66 -71 -66 -1 0 7 35 20 78 22 77 60
163 134 302 23 41 52 104 66 140 26 69 98 325 116 412 23 115 24 107 53 -357z
m1410 -55 c15 -41 52 -122 84 -180 68 -124 85 -162 113 -254 11 -37 23 -76 27
-85 3 -9 -43 30 -104 87 -60 56 -150 133 -201 170 l-92 67 -1 51 c0 57 27 489
40 629 0 6 25 -84 54 -200 30 -115 66 -244 80 -285z m-1335 -350 c19 -60 25
-107 31 -235 6 -119 16 -197 39 -303 38 -174 40 -282 10 -450 -31 -179 -66
-285 -97 -297 -40 -15 -132 62 -169 142 -13 29 -28 55 -33 58 -15 9 -39 -7
-60 -40 -40 -64 -145 -124 -182 -104 -27 15 -45 57 -74 176 -36 148 -44 237
-33 374 17 234 49 342 129 436 121 142 348 328 394 321 15 -2 26 -21 45 -78z
m1227 28 c90 -60 265 -225 328 -309 48 -63 65 -120 91 -294 25 -167 20 -278
-19 -447 -39 -166 -55 -203 -90 -212 -48 -12 -127 36 -173 105 -35 54 -56 51
-88 -13 -44 -89 -103 -138 -163 -138 -27 0 -32 6 -55 62 -54 138 -93 374 -83
503 4 44 22 150 41 235 23 106 35 191 38 270 6 145 47 290 82 290 7 0 48 -23
91 -52z m-1442 -1248 c26 -55 92 -113 152 -135 27 -10 50 -19 52 -20 1 -1 -3
-26 -8 -56 -24 -124 -40 -326 -40 -504 0 -172 -2 -194 -22 -242 l-22 -53 28
-161 c42 -243 32 -263 -127 -261 -51 0 -112 5 -137 11 -25 6 -116 11 -203 11
-87 0 -178 5 -203 11 -44 11 -44 12 -27 32 10 11 50 41 89 67 49 34 94 78 150
146 43 53 89 109 100 123 28 34 76 170 70 196 -3 11 -12 92 -21 180 -9 88 -34
250 -56 359 -21 110 -38 200 -37 201 2 0 26 6 53 13 55 14 148 71 167 102 17
27 20 26 42 -20z m1679 -70 c23 -11 54 -20 70 -20 33 0 33 2 2 -148 -32 -160
-61 -349 -75 -500 -11 -123 -11 -124 15 -191 18 -46 54 -102 110 -172 99 -125
141 -166 225 -222 110 -72 97 -81 -135 -83 -93 -1 -199 -7 -235 -13 -100 -17
-251 -14 -278 5 -27 19 -29 77 -7 185 28 131 30 209 8 260 -17 39 -20 70 -21
273 -2 141 -8 271 -18 340 -9 61 -18 132 -21 158 l-5 47 39 10 c49 13 113 67
154 131 l32 50 49 -46 c27 -25 67 -54 91 -64z"/>
</g>
</svg>
