<?xml version="1.0" standalone="no"?>
<!DOCTYPE svg PUBLIC "-//W3C//DTD SVG 20010904//EN"
 "http://www.w3.org/TR/2001/REC-SVG-20010904/DTD/svg10.dtd">
<svg version="1.0" xmlns="http://www.w3.org/2000/svg"
 width="1024.000000pt" height="1024.000000pt" viewBox="0 0 1024.000000 1024.000000"
 preserveAspectRatio="xMidYMid meet">

<g transform="translate(0.000000,1024.000000) scale(0.100000,-0.100000)"
fill="#000000" stroke="none">
<path d="M4758 10204 c-83 -45 -179 -138 -212 -207 -37 -77 -77 -222 -83 -307
-6 -72 -8 -76 -45 -109 -66 -57 -85 -122 -67 -235 14 -88 53 -162 124 -233 53
-53 63 -69 69 -109 3 -25 24 -79 46 -119 43 -77 51 -137 31 -215 -6 -19 -15
-54 -21 -77 -13 -53 -29 -63 -397 -250 -226 -114 -290 -143 -323 -143 -98 0
-257 -77 -350 -170 -56 -55 -73 -81 -113 -172 -79 -182 -89 -233 -92 -463 -3
-194 -4 -202 -34 -285 -46 -128 -69 -231 -86 -386 -24 -209 -30 -232 -116
-407 -93 -191 -116 -270 -153 -542 -46 -329 -77 -527 -96 -620 -18 -82 -23
-93 -57 -120 -72 -57 -258 -250 -314 -325 -126 -170 -151 -212 -146 -247 7
-38 39 -88 68 -103 23 -13 43 -4 122 57 59 46 77 51 59 16 -6 -10 -15 -58 -21
-106 -7 -52 -28 -134 -51 -199 -45 -125 -49 -168 -20 -215 30 -50 70 -62 139
-42 9 3 17 -8 23 -31 23 -85 81 -118 142 -82 33 20 34 20 76 1 23 -10 50 -19
59 -19 26 0 75 34 100 72 23 33 27 35 71 30 41 -4 51 -1 83 27 56 49 68 100
74 296 3 99 10 189 18 215 22 74 39 280 30 367 -17 158 -12 231 19 308 37 89
93 204 183 375 136 259 188 424 203 653 9 128 14 153 34 186 76 120 130 254
181 452 19 72 36 133 39 136 2 2 7 -26 11 -64 15 -158 51 -304 112 -448 24
-56 25 -68 20 -170 -4 -60 -11 -166 -18 -235 -6 -69 -8 -167 -5 -218 5 -71 3
-99 -8 -120 -36 -70 -126 -517 -145 -722 -35 -373 -44 -552 -38 -830 8 -408
40 -646 112 -847 l36 -97 -7 -210 c-7 -205 -8 -214 -41 -311 -72 -212 -111
-582 -80 -765 8 -47 33 -157 55 -245 66 -258 104 -468 143 -801 l12 -101 -39
-74 c-32 -61 -63 -98 -177 -209 -160 -156 -201 -210 -193 -257 6 -38 74 -133
96 -133 9 0 25 7 37 15 19 13 22 13 27 0 5 -13 41 -15 248 -15 l243 1 124 51
c144 60 149 68 159 200 4 67 2 84 -19 130 -22 48 -24 70 -27 223 -7 314 -3
461 13 586 17 137 26 174 79 324 19 55 42 135 50 177 23 113 21 387 -4 574
-26 195 -25 224 9 362 53 210 79 344 105 542 17 131 43 267 80 415 30 121 59
249 65 285 23 142 73 562 79 670 7 115 7 115 33 118 l27 3 7 -103 c8 -127 58
-538 86 -712 12 -71 41 -201 65 -290 25 -90 53 -225 64 -306 11 -80 25 -179
30 -220 6 -41 35 -180 65 -309 l54 -234 -21 -151 c-25 -178 -30 -496 -10 -616
7 -41 29 -120 48 -175 102 -287 112 -381 101 -930 -3 -163 -6 -185 -26 -229
-21 -43 -23 -60 -18 -132 3 -51 12 -97 23 -121 18 -35 28 -41 139 -85 l120
-48 234 0 c207 0 237 2 253 17 16 14 23 15 38 5 37 -23 58 -14 95 40 39 58 43
91 18 128 -9 14 -89 102 -178 195 -104 110 -170 190 -190 227 l-29 56 13 119
c27 259 100 646 166 888 67 248 58 484 -32 840 -43 171 -40 151 -54 370 -16
237 -17 216 26 330 40 108 76 276 97 450 16 142 16 759 -1 955 -6 80 -21 201
-32 270 -11 69 -26 175 -34 235 -8 61 -36 189 -61 285 -47 175 -47 175 -49
355 -1 99 -10 251 -20 337 -16 150 -16 160 0 200 68 168 107 313 120 444 4 39
10 76 14 83 4 7 19 -30 33 -87 31 -115 110 -309 178 -437 47 -88 48 -92 49
-180 1 -173 46 -350 149 -581 27 -61 62 -130 77 -155 46 -71 151 -293 175
-368 17 -53 21 -83 16 -132 -16 -191 -17 -240 -6 -346 6 -63 18 -136 26 -162
9 -29 14 -93 14 -176 0 -213 25 -310 90 -348 31 -19 91 -22 106 -7 8 8 19 -2
38 -30 46 -69 110 -97 152 -65 25 19 54 19 93 -1 50 -25 81 -9 116 62 l30 60
38 -9 c49 -12 80 2 107 45 28 47 25 93 -16 205 -19 54 -43 139 -54 188 -10 50
-21 103 -25 118 -7 28 -7 28 59 -19 84 -58 109 -59 153 -9 48 55 45 89 -16
179 -112 166 -291 366 -385 431 -48 33 -56 43 -65 84 -20 93 -50 291 -76 491
-45 353 -92 565 -152 685 -14 28 -47 86 -74 130 l-48 80 -16 165 c-25 272 -46
365 -110 503 -27 59 -27 59 -15 153 15 113 1 289 -32 404 -39 138 -139 314
-207 367 -78 59 -218 123 -296 134 -80 13 -250 88 -549 243 l-184 96 -21 89
c-31 132 -28 167 20 259 22 42 43 98 46 122 5 38 16 56 73 116 80 85 109 151
117 265 7 98 -7 139 -61 185 -43 36 -43 36 -50 117 -7 102 -38 213 -79 292
-43 82 -146 183 -226 223 l-64 32 -276 0 -276 -1 -67 -35z m545 -38 c135 -43
231 -124 287 -241 45 -95 61 -179 59 -315 -1 -64 1 -122 5 -129 10 -16 56 -14
76 4 15 14 18 11 30 -39 25 -105 -28 -222 -126 -278 -56 -31 -58 -35 -68 -120
-8 -69 -46 -135 -127 -225 -99 -109 -136 -140 -194 -162 -117 -44 -238 -33
-337 30 -57 37 -223 227 -249 284 -10 22 -21 73 -25 113 -6 71 -7 72 -35 72
-20 0 -42 14 -78 49 -55 53 -81 119 -81 200 0 63 9 74 47 60 23 -7 37 -7 52 1
20 10 21 20 21 134 0 339 140 528 430 580 52 9 266 -3 313 -18z m187 -1472 c0
-63 32 -163 63 -198 37 -41 205 -135 392 -219 122 -54 163 -77 139 -77 -28 0
-650 -62 -709 -70 -103 -15 -173 -38 -223 -72 l-44 -30 -21 20 c-77 70 -262
103 -692 122 -332 14 -327 9 -110 116 99 49 201 97 227 107 60 23 161 116 181
164 8 21 18 62 22 91 5 39 11 52 24 52 31 0 55 -53 148 -325 38 -112 62 -167
79 -182 31 -28 50 -29 64 -2 9 16 7 28 -13 62 -56 97 -140 338 -118 337 3 0
44 -12 90 -25 109 -32 147 -31 249 4 81 28 82 29 82 7 -1 -34 -67 -214 -106
-284 -39 -72 -42 -115 -8 -120 43 -6 67 39 138 252 43 130 79 221 100 250 35
52 46 57 46 20z m853 -579 c179 -47 302 -145 381 -307 41 -83 48 -106 62 -218
16 -122 17 -361 2 -375 -9 -10 -174 83 -259 146 -90 66 -154 137 -223 247 -62
98 -79 109 -116 72 -25 -25 -25 -54 -1 -89 10 -14 24 -46 31 -71 17 -62 17
-199 1 -229 -40 -73 -182 -189 -297 -243 -59 -28 -80 -33 -139 -32 -38 0 -97
8 -130 17 -33 9 -136 30 -230 46 -93 17 -186 35 -205 41 -74 21 -69 -9 -71
430 -1 288 1 402 10 418 15 29 75 59 153 76 35 8 182 22 328 30 146 9 321 23
390 31 244 28 243 28 313 10z m-2163 -20 c228 -24 441 -37 520 -30 128 11 331
-46 348 -98 4 -12 6 -205 4 -428 l-3 -407 -77 -21 c-80 -22 -185 -43 -405 -82
-115 -20 -135 -21 -190 -10 -134 27 -304 132 -370 228 -23 33 -30 56 -34 118
-5 68 -3 86 27 176 l34 99 -21 28 c-37 49 -57 42 -104 -40 -87 -150 -148 -214
-299 -315 -94 -63 -158 -96 -174 -90 -19 7 -29 252 -15 331 39 212 74 298 157
387 85 92 194 151 311 168 62 9 92 8 291 -14z m-287 -788 c20 -106 21 -145 7
-254 -50 -374 -162 -656 -319 -807 -65 -62 -131 -97 -164 -88 -33 9 -112 94
-142 152 l-26 52 15 168 c16 167 54 383 81 464 27 80 46 117 55 111 5 -3 24 1
42 8 49 21 268 164 308 202 35 33 108 85 119 85 3 0 14 -42 24 -93z m2552 14
c89 -72 138 -105 255 -171 105 -60 118 -71 143 -118 48 -88 77 -227 87 -407 4
-88 14 -181 21 -207 11 -41 11 -51 -7 -89 -26 -59 -132 -169 -163 -169 -44 0
-113 44 -177 113 -48 53 -78 98 -123 190 -71 146 -134 329 -155 452 -25 141
-20 383 10 473 4 15 17 7 109 -67z m-2250 -314 c63 -32 134 -55 215 -71 l25
-5 -4 -160 c-3 -144 -1 -165 16 -198 18 -34 20 -53 15 -193 -2 -94 1 -184 8
-230 6 -41 13 -176 14 -300 3 -259 17 -360 76 -540 37 -112 115 -293 167 -387
37 -65 141 -172 203 -208 l51 -30 -4 -175 c-3 -123 -14 -241 -36 -395 -54
-378 -71 -474 -111 -604 -22 -75 -47 -187 -59 -276 -28 -195 -85 -476 -118
-578 -14 -45 -50 -127 -79 -181 -66 -121 -128 -308 -156 -471 -16 -96 -19
-146 -15 -250 6 -143 22 -217 69 -315 l31 -65 1 -445 c1 -425 3 -449 24 -530
21 -83 28 -163 16 -207 -6 -23 -81 -67 -174 -102 -41 -16 -67 -19 -105 -15
-44 5 -59 2 -113 -25 -34 -17 -64 -31 -67 -31 -3 0 -5 11 -5 24 0 19 11 28 58
49 31 14 67 28 80 32 32 9 48 43 29 63 -13 12 -23 13 -64 3 -48 -12 -168 -81
-211 -121 -22 -21 -24 -21 -43 -4 -29 26 -23 40 27 64 54 27 79 60 70 95 -8
30 -28 32 -64 6 -15 -10 -37 -21 -49 -25 -21 -7 -72 -58 -91 -93 -12 -21 -18
-17 -27 20 -7 25 -2 33 40 70 26 23 57 53 69 67 11 13 57 61 102 106 87 89
144 166 176 244 l20 49 -31 218 c-41 295 -74 472 -131 703 -95 384 -94 430 17
953 3 16 9 25 13 20 21 -23 91 -314 109 -458 6 -44 15 -226 21 -405 6 -179 17
-401 26 -495 8 -93 19 -221 23 -283 5 -63 13 -118 19 -124 5 -5 20 -8 33 -6
22 3 24 8 27 67 2 35 -6 174 -17 310 -28 335 -41 552 -41 701 0 204 -30 393
-116 744 -28 115 -34 159 -34 247 0 135 8 159 52 159 40 1 126 35 197 78 28
18 55 32 60 32 5 0 12 -23 16 -52 4 -28 16 -81 26 -117 23 -80 24 -155 3 -255
-20 -99 -17 -130 16 -134 53 -6 61 11 71 171 l10 146 -33 93 c-45 129 -43 175
15 363 116 376 141 535 126 805 -11 208 -21 270 -75 450 -54 184 -287 821
-316 869 -13 20 -44 64 -70 97 -39 51 -49 74 -59 130 -11 64 -8 241 7 446 l6
78 51 -46 c37 -33 57 -44 76 -42 42 5 38 35 -11 87 -62 64 -146 169 -162 200
-28 56 -47 133 -71 296 -13 94 -31 206 -39 250 -9 44 -15 99 -16 123 l0 43 63
-45 c34 -24 94 -60 132 -79z m2001 -1 c-9 -58 -20 -125 -26 -149 -5 -24 -14
-94 -20 -155 -19 -202 -70 -320 -196 -451 -71 -75 -86 -102 -63 -116 19 -12
53 4 98 45 24 22 45 39 47 37 7 -7 24 -287 24 -402 0 -66 -5 -136 -10 -155 -5
-19 -35 -64 -65 -99 -72 -82 -88 -115 -205 -420 -208 -547 -247 -698 -257
-1012 -9 -269 20 -441 127 -754 50 -144 52 -153 47 -235 -3 -55 -14 -113 -31
-163 -29 -86 -34 -177 -16 -301 11 -76 30 -106 67 -106 35 0 38 23 20 134 -23
136 -22 197 8 296 14 46 25 93 25 105 0 34 10 36 44 10 61 -46 178 -95 228
-95 l48 0 2 -87 c4 -144 0 -178 -41 -362 -78 -347 -103 -550 -126 -1021 -8
-168 -22 -384 -30 -481 -19 -207 -17 -257 8 -273 15 -9 22 -7 36 11 14 17 19
47 24 140 3 65 13 210 21 323 8 113 20 297 26 410 19 335 37 506 69 665 31
150 47 205 60 205 8 0 47 -162 78 -315 28 -142 24 -350 -10 -490 -14 -60 -42
-177 -61 -260 -35 -147 -103 -536 -127 -726 l-12 -95 43 -83 c29 -55 70 -111
119 -165 42 -44 93 -102 114 -128 21 -26 57 -61 81 -78 53 -38 71 -72 55 -102
-10 -19 -14 -18 -67 35 -56 54 -131 107 -152 107 -6 0 -15 -12 -21 -26 -12
-32 6 -56 62 -84 54 -28 63 -43 41 -71 l-19 -23 -40 32 c-52 41 -222 124 -248
120 -15 -2 -20 -11 -20 -31 0 -25 7 -31 56 -51 69 -28 121 -58 126 -71 1 -6
-1 -15 -5 -22 -5 -8 -28 -2 -79 24 -69 34 -74 35 -117 23 -43 -12 -72 -7 -61
9 2 5 -11 11 -30 14 -59 10 -165 66 -176 93 -15 40 -10 133 11 221 24 100 33
469 19 765 l-9 187 24 36 c32 47 59 120 81 219 15 65 17 106 12 225 -10 223
-65 443 -145 581 -20 36 -50 93 -66 128 -43 97 -122 425 -156 647 -17 112 -46
250 -65 315 -44 148 -57 219 -94 480 -52 368 -54 391 -55 544 l-1 149 56 34
c89 51 140 117 228 291 159 315 204 464 221 723 10 148 9 177 -11 270 -9 39
-7 52 10 85 28 55 46 273 31 367 -10 64 -9 70 12 100 22 30 23 40 22 203 l-1
172 51 6 c62 7 166 59 272 136 43 31 83 54 87 50 5 -4 2 -55 -7 -114z m-838
-1 c166 -31 323 -72 340 -89 16 -15 27 -183 18 -260 -12 -91 -26 -100 -150
-92 -131 9 -365 36 -393 47 -23 8 -23 9 -23 229 l0 220 35 -14 c19 -8 97 -27
173 -41z m-308 -179 l0 -213 -57 -11 c-92 -18 -407 -34 -436 -23 -44 17 -50
43 -44 175 3 67 10 133 16 148 11 29 41 40 136 53 90 11 254 46 308 65 28 10
58 19 65 19 9 1 12 -48 12 -213z m240 -316 c69 -11 182 -23 253 -26 125 -7
127 -7 134 -32 9 -37 -5 -309 -17 -332 -10 -19 -21 -20 -260 -20 l-250 0 0
215 c0 118 3 215 8 215 4 0 63 -9 132 -20z m-240 -206 l0 -215 -249 2 -249 2
-6 31 c-12 56 -17 270 -9 316 l9 45 164 7 c91 4 192 11 225 16 33 5 72 10 88
11 l27 1 0 -216z m2017 -41 c69 -128 98 -250 143 -613 42 -333 93 -621 116
-658 8 -12 45 -42 82 -66 72 -47 147 -120 205 -201 19 -27 54 -68 77 -90 62
-59 110 -129 110 -159 0 -53 -53 -23 -160 91 -45 48 -92 93 -104 100 -52 30
-94 1 -81 -57 3 -16 31 -69 61 -119 50 -83 56 -98 69 -193 9 -57 32 -151 52
-210 20 -58 33 -113 30 -122 -9 -23 -31 -20 -66 10 -37 31 -76 145 -94 274
-13 91 -31 116 -62 90 -28 -23 -16 -193 20 -285 34 -85 41 -150 23 -194 -13
-33 -13 -33 -36 -15 -39 33 -70 146 -87 318 -8 86 -19 165 -25 175 -14 27 -40
33 -66 16 -28 -18 -28 -21 -10 -88 8 -29 17 -90 21 -137 3 -47 15 -125 26
-174 18 -74 19 -92 8 -112 -7 -13 -16 -24 -20 -24 -32 0 -72 136 -95 325 -20
171 -48 230 -89 188 -15 -15 -17 -30 -11 -122 4 -59 12 -145 17 -193 11 -90 8
-108 -16 -108 -37 0 -64 141 -65 337 0 57 -8 124 -20 175 -25 103 -27 321 -5
413 8 33 14 73 15 88 0 43 -80 229 -205 474 -176 346 -240 534 -233 690 l3 72
75 -44 76 -45 81 -157 c117 -228 159 -352 233 -681 21 -96 44 -180 51 -188 16
-20 46 -18 58 4 32 60 -182 790 -271 925 -19 28 -42 64 -52 78 l-17 27 50 36
c58 41 116 115 133 169 6 20 14 37 17 37 4 0 20 -26 38 -57z m-3855 -11 c10
-21 49 -69 88 -106 38 -38 70 -72 70 -77 0 -4 -18 -36 -39 -69 -74 -114 -163
-345 -212 -550 -95 -393 -97 -420 -43 -420 31 0 38 16 64 145 61 310 123 504
229 720 84 170 93 180 214 254 l37 23 0 -54 c-1 -207 -61 -385 -259 -772 -66
-127 -127 -258 -136 -291 -10 -33 -25 -70 -33 -83 -15 -23 -14 -36 8 -172 16
-103 12 -280 -10 -365 -14 -56 -20 -111 -20 -194 0 -147 -15 -277 -35 -307 -8
-13 -25 -24 -37 -24 -19 0 -20 4 -14 53 16 137 29 325 23 349 -8 31 -35 44
-55 25 -17 -17 -28 -65 -42 -182 -16 -142 -50 -288 -70 -309 -28 -29 -53 -5
-47 43 25 190 40 289 53 359 16 92 11 112 -32 112 -39 0 -52 -35 -64 -175 -17
-200 -41 -294 -85 -339 -26 -26 -33 -19 -46 42 -11 54 -10 62 20 147 17 50 36
132 42 183 9 81 9 96 -5 118 -35 52 -76 11 -76 -74 0 -65 -26 -182 -53 -241
-23 -50 -73 -87 -94 -69 -20 16 -16 38 23 139 25 68 39 125 49 209 15 130 19
143 70 220 46 71 63 124 45 145 -30 36 -71 12 -222 -132 -87 -84 -104 -94
-114 -70 -9 25 14 64 81 138 37 41 84 99 105 129 50 73 152 169 221 208 31 18
61 38 66 45 28 38 53 162 98 492 41 299 78 517 101 595 23 78 96 220 113 220
3 0 14 -18 23 -38z m1840 -849 c2 -335 1 -616 -2 -626 -5 -16 -11 -15 -69 14
-35 17 -89 57 -121 88 -118 116 -245 439 -295 755 -19 116 -22 314 -6 344 14
25 36 28 298 30 l191 2 4 -607z m565 591 c45 -9 55 -130 28 -323 -29 -205 -60
-310 -150 -522 -72 -168 -100 -215 -160 -274 -38 -36 -182 -123 -189 -113 -1
1 0 281 2 620 4 560 6 617 21 621 19 6 416 -2 448 -9z m-1382 -589 c18 -38 42
-100 54 -136 l22 -66 -60 -130 c-109 -240 -202 -491 -252 -683 -16 -62 -32
-116 -34 -119 -3 -2 -5 50 -5 116 0 275 82 837 155 1067 l29 89 29 -34 c15
-19 43 -65 62 -104z m1853 18 c89 -308 149 -708 165 -1095 2 -48 2 -87 1 -85
-2 1 -23 72 -48 158 -48 166 -145 418 -250 648 -36 79 -66 154 -66 167 0 52
132 314 159 314 4 0 22 -48 39 -107z m-149 -521 c149 -351 212 -538 257 -770
34 -171 38 -250 25 -427 -14 -181 -33 -300 -68 -409 -48 -153 -88 -203 -152
-191 -52 10 -127 51 -176 96 -68 63 -146 268 -197 522 -20 99 -23 141 -23 357
1 329 0 326 201 907 22 62 41 112 44 113 3 0 43 -89 89 -198z m-1511 -30 c143
-388 173 -512 180 -750 8 -274 -38 -531 -144 -799 -36 -92 -60 -120 -149 -172
-72 -42 -129 -57 -161 -42 -53 24 -119 212 -148 426 -51 375 -26 574 129 1036
66 194 197 499 214 499 3 0 39 -89 79 -198z m1182 -2532 c64 -128 113 -310
125 -470 11 -151 -31 -359 -81 -401 -47 -39 -131 367 -121 586 5 94 37 345 44
345 2 0 16 -27 33 -60z m-959 -96 c18 -111 20 -155 16 -309 -7 -216 -34 -354
-90 -461 l-15 -28 -21 34 c-48 78 -66 165 -66 320 0 156 15 251 62 395 24 74
80 191 89 183 2 -2 13 -62 25 -134z"/>
</g>
</svg>
